<mxfile host="Electron" agent="Mozilla/5.0 (Windows NT 10.0; Win64; x64) AppleWebKit/537.36 (KHTML, like Gecko) draw.io/26.0.16 Chrome/132.0.6834.196 Electron/34.2.0 Safari/537.36" version="26.0.16">
  <diagram name="Pagina-1" id="MqDAOUbSSF8TTXC7MPCy">
    <mxGraphModel dx="1434" dy="2013" grid="1" gridSize="10" guides="1" tooltips="1" connect="1" arrows="1" fold="1" page="1" pageScale="1" pageWidth="827" pageHeight="1169" math="0" shadow="0">
      <root>
        <mxCell id="0" />
        <mxCell id="1" parent="0" />
        <mxCell id="xLusIHKsAydajGtpD9oH-1" value="Cognitive Abstraction Layer (CAL)" style="rounded=0;whiteSpace=wrap;html=1;" parent="1" vertex="1">
          <mxGeometry x="1175" y="-90" width="240" height="40" as="geometry" />
        </mxCell>
        <mxCell id="xLusIHKsAydajGtpD9oH-49" style="edgeStyle=none;curved=1;rounded=0;orthogonalLoop=1;jettySize=auto;html=1;fontSize=12;startSize=8;endSize=8;" parent="1" source="xLusIHKsAydajGtpD9oH-46" target="xLusIHKsAydajGtpD9oH-48" edge="1">
          <mxGeometry relative="1" as="geometry" />
        </mxCell>
        <mxCell id="xLusIHKsAydajGtpD9oH-50" style="edgeStyle=none;curved=1;rounded=0;orthogonalLoop=1;jettySize=auto;html=1;fontSize=12;startSize=8;endSize=8;" parent="1" source="xLusIHKsAydajGtpD9oH-46" target="xLusIHKsAydajGtpD9oH-47" edge="1">
          <mxGeometry relative="1" as="geometry">
            <Array as="points">
              <mxPoint x="970" y="-40" />
            </Array>
          </mxGeometry>
        </mxCell>
        <mxCell id="xLusIHKsAydajGtpD9oH-46" value="&lt;font style=&quot;&quot;&gt;&lt;span style=&quot;font-size: 10px;&quot;&gt;Natural Language Processing &lt;/span&gt;&lt;b style=&quot;&quot;&gt;&lt;font&gt;i/o&lt;/font&gt;&lt;/b&gt;&lt;/font&gt;" style="shape=process;whiteSpace=wrap;html=1;backgroundOutline=1;" parent="1" vertex="1">
          <mxGeometry x="1100" y="-50" width="120" height="30" as="geometry" />
        </mxCell>
        <mxCell id="xLusIHKsAydajGtpD9oH-52" style="edgeStyle=none;curved=1;rounded=0;orthogonalLoop=1;jettySize=auto;html=1;fontSize=12;startSize=8;endSize=8;" parent="1" source="xLusIHKsAydajGtpD9oH-47" target="xLusIHKsAydajGtpD9oH-51" edge="1">
          <mxGeometry relative="1" as="geometry" />
        </mxCell>
        <mxCell id="xLusIHKsAydajGtpD9oH-47" value="&lt;font style=&quot;font-size: 11px;&quot;&gt;&lt;b&gt;Natural Language Generation&lt;/b&gt;&lt;/font&gt;" style="rounded=0;whiteSpace=wrap;html=1;" parent="1" vertex="1">
          <mxGeometry x="920" y="10" width="100" height="40" as="geometry" />
        </mxCell>
        <mxCell id="xLusIHKsAydajGtpD9oH-58" style="edgeStyle=none;curved=1;rounded=0;orthogonalLoop=1;jettySize=auto;html=1;fontSize=12;startSize=8;endSize=8;" parent="1" source="xLusIHKsAydajGtpD9oH-48" target="xLusIHKsAydajGtpD9oH-55" edge="1">
          <mxGeometry relative="1" as="geometry" />
        </mxCell>
        <mxCell id="xLusIHKsAydajGtpD9oH-59" style="edgeStyle=none;curved=1;rounded=0;orthogonalLoop=1;jettySize=auto;html=1;fontSize=12;startSize=8;endSize=8;" parent="1" source="xLusIHKsAydajGtpD9oH-48" target="xLusIHKsAydajGtpD9oH-53" edge="1">
          <mxGeometry relative="1" as="geometry">
            <Array as="points">
              <mxPoint x="1110" y="60" />
            </Array>
          </mxGeometry>
        </mxCell>
        <mxCell id="xLusIHKsAydajGtpD9oH-60" style="edgeStyle=none;curved=1;rounded=0;orthogonalLoop=1;jettySize=auto;html=1;entryX=0.5;entryY=0;entryDx=0;entryDy=0;fontSize=12;startSize=8;endSize=8;" parent="1" source="xLusIHKsAydajGtpD9oH-48" target="xLusIHKsAydajGtpD9oH-56" edge="1">
          <mxGeometry relative="1" as="geometry">
            <Array as="points">
              <mxPoint x="1240" y="50" />
            </Array>
          </mxGeometry>
        </mxCell>
        <mxCell id="xLusIHKsAydajGtpD9oH-61" style="edgeStyle=none;curved=1;rounded=0;orthogonalLoop=1;jettySize=auto;html=1;fontSize=12;startSize=8;endSize=8;" parent="1" source="xLusIHKsAydajGtpD9oH-48" target="xLusIHKsAydajGtpD9oH-54" edge="1">
          <mxGeometry relative="1" as="geometry" />
        </mxCell>
        <mxCell id="xLusIHKsAydajGtpD9oH-62" style="edgeStyle=none;curved=1;rounded=0;orthogonalLoop=1;jettySize=auto;html=1;fontSize=12;startSize=8;endSize=8;" parent="1" source="xLusIHKsAydajGtpD9oH-48" target="xLusIHKsAydajGtpD9oH-57" edge="1">
          <mxGeometry relative="1" as="geometry">
            <Array as="points">
              <mxPoint x="1220" y="100" />
            </Array>
          </mxGeometry>
        </mxCell>
        <mxCell id="xLusIHKsAydajGtpD9oH-48" value="&lt;font style=&quot;font-size: 11px;&quot;&gt;&lt;b&gt;Natural Language Understanding&lt;/b&gt;&lt;/font&gt;" style="rounded=0;whiteSpace=wrap;html=1;" parent="1" vertex="1">
          <mxGeometry x="1110" y="10" width="100" height="40" as="geometry" />
        </mxCell>
        <mxCell id="xLusIHKsAydajGtpD9oH-51" value="&lt;font style=&quot;font-size: 11px;&quot;&gt;Natural Language Texts&lt;/font&gt;" style="rounded=0;whiteSpace=wrap;html=1;" parent="1" vertex="1">
          <mxGeometry x="920" y="120" width="100" height="40" as="geometry" />
        </mxCell>
        <mxCell id="xLusIHKsAydajGtpD9oH-53" value="&lt;font style=&quot;font-size: 11px;&quot;&gt;Phonology&lt;/font&gt;" style="rounded=0;whiteSpace=wrap;html=1;" parent="1" vertex="1">
          <mxGeometry x="1070" y="80" width="60" height="40" as="geometry" />
        </mxCell>
        <mxCell id="xLusIHKsAydajGtpD9oH-54" value="&lt;font style=&quot;font-size: 11px;&quot;&gt;Morphology&lt;/font&gt;" style="rounded=0;whiteSpace=wrap;html=1;" parent="1" vertex="1">
          <mxGeometry x="1090" y="150" width="60" height="40" as="geometry" />
        </mxCell>
        <mxCell id="xLusIHKsAydajGtpD9oH-55" value="&lt;font style=&quot;font-size: 11px;&quot;&gt;Syntax&lt;/font&gt;" style="rounded=0;whiteSpace=wrap;html=1;" parent="1" vertex="1">
          <mxGeometry x="1150" y="110" width="70" height="30" as="geometry" />
        </mxCell>
        <mxCell id="xLusIHKsAydajGtpD9oH-56" value="&lt;font style=&quot;font-size: 11px;&quot;&gt;Pragmatics&lt;/font&gt;" style="rounded=0;whiteSpace=wrap;html=1;" parent="1" vertex="1">
          <mxGeometry x="1234" y="70" width="60" height="40" as="geometry" />
        </mxCell>
        <mxCell id="xLusIHKsAydajGtpD9oH-57" value="&lt;font style=&quot;font-size: 11px;&quot;&gt;Semantics&lt;/font&gt;" style="rounded=0;whiteSpace=wrap;html=1;" parent="1" vertex="1">
          <mxGeometry x="1224" y="160" width="70" height="30" as="geometry" />
        </mxCell>
        <mxCell id="xLusIHKsAydajGtpD9oH-63" value="&lt;font style=&quot;&quot;&gt;&lt;span style=&quot;font-size: 10px;&quot;&gt;Visual Processing Layer &lt;/span&gt;&lt;b style=&quot;&quot;&gt;&lt;font style=&quot;font-size: 11px;&quot;&gt;input&lt;/font&gt;&lt;/b&gt;&lt;/font&gt;" style="shape=process;whiteSpace=wrap;html=1;backgroundOutline=1;" parent="1" vertex="1">
          <mxGeometry x="1235" y="-50" width="120" height="30" as="geometry" />
        </mxCell>
        <mxCell id="xLusIHKsAydajGtpD9oH-64" value="&lt;span style=&quot;font-size: 10px;&quot;&gt;Audio&amp;nbsp; Processing Layer &lt;/span&gt;&lt;b style=&quot;&quot;&gt;&lt;font&gt;input&lt;/font&gt;&lt;/b&gt;" style="shape=process;whiteSpace=wrap;html=1;backgroundOutline=1;" parent="1" vertex="1">
          <mxGeometry x="1380" y="-50" width="120" height="30" as="geometry" />
        </mxCell>
        <mxCell id="xLusIHKsAydajGtpD9oH-65" value="Thinking Stack" style="rounded=0;whiteSpace=wrap;html=1;" parent="1" vertex="1">
          <mxGeometry x="1240" y="-130" width="125" height="40" as="geometry" />
        </mxCell>
        <mxCell id="xLusIHKsAydajGtpD9oH-66" value="Memory Stack" style="rounded=0;whiteSpace=wrap;html=1;" parent="1" vertex="1">
          <mxGeometry x="1240" y="-170" width="125" height="40" as="geometry" />
        </mxCell>
        <mxCell id="xLusIHKsAydajGtpD9oH-67" value="I/O Processing Layer" style="rounded=0;whiteSpace=wrap;html=1;" parent="1" vertex="1">
          <mxGeometry x="947.5" y="450" width="240" height="40" as="geometry" />
        </mxCell>
        <mxCell id="xLusIHKsAydajGtpD9oH-89" style="edgeStyle=none;curved=1;rounded=0;orthogonalLoop=1;jettySize=auto;html=1;fontSize=12;startSize=8;endSize=8;exitX=0.709;exitY=1.014;exitDx=0;exitDy=0;exitPerimeter=0;" parent="1" source="xLusIHKsAydajGtpD9oH-68" target="xLusIHKsAydajGtpD9oH-86" edge="1">
          <mxGeometry relative="1" as="geometry" />
        </mxCell>
        <mxCell id="xLusIHKsAydajGtpD9oH-68" value="&lt;font style=&quot;&quot;&gt;&lt;span style=&quot;font-size: 10px;&quot;&gt;Natural Language Processing &lt;/span&gt;&lt;b style=&quot;&quot;&gt;&lt;font&gt;i/o&lt;/font&gt;&lt;/b&gt;&lt;/font&gt;" style="shape=process;whiteSpace=wrap;html=1;backgroundOutline=1;" parent="1" vertex="1">
          <mxGeometry x="877.5" y="490" width="120" height="30" as="geometry" />
        </mxCell>
        <mxCell id="xLusIHKsAydajGtpD9oH-69" value="&lt;font style=&quot;&quot;&gt;&lt;span style=&quot;font-size: 10px;&quot;&gt;Visual Processing Layer &lt;/span&gt;&lt;b style=&quot;&quot;&gt;&lt;font style=&quot;font-size: 11px;&quot;&gt;input/_&lt;/font&gt;&lt;/b&gt;&lt;/font&gt;" style="shape=process;whiteSpace=wrap;html=1;backgroundOutline=1;" parent="1" vertex="1">
          <mxGeometry x="1007.5" y="490" width="120" height="30" as="geometry" />
        </mxCell>
        <mxCell id="xLusIHKsAydajGtpD9oH-70" value="&lt;span style=&quot;font-size: 10px;&quot;&gt;Audio&amp;nbsp; Processing Layer &lt;/span&gt;&lt;b style=&quot;&quot;&gt;&lt;font&gt;input/_&lt;/font&gt;&lt;/b&gt;" style="shape=process;whiteSpace=wrap;html=1;backgroundOutline=1;" parent="1" vertex="1">
          <mxGeometry x="1137.5" y="490" width="120" height="30" as="geometry" />
        </mxCell>
        <mxCell id="xLusIHKsAydajGtpD9oH-72" value="&lt;span style=&quot;background-color: transparent; color: light-dark(rgb(0, 0, 0), rgb(255, 255, 255));&quot;&gt;&lt;font style=&quot;font-size: 14px;&quot;&gt;&lt;b&gt;Input&lt;/b&gt;&lt;/font&gt;&lt;/span&gt;" style="shape=dataStorage;whiteSpace=wrap;html=1;fixedSize=1;rotation=90;align=center;" parent="1" vertex="1">
          <mxGeometry x="870" y="567.5" width="50" height="40" as="geometry" />
        </mxCell>
        <mxCell id="xLusIHKsAydajGtpD9oH-98" style="edgeStyle=none;curved=1;rounded=0;orthogonalLoop=1;jettySize=auto;html=1;fontSize=12;startSize=8;endSize=8;" parent="1" source="xLusIHKsAydajGtpD9oH-86" edge="1">
          <mxGeometry relative="1" as="geometry">
            <Array as="points">
              <mxPoint x="967.5" y="650" />
            </Array>
            <mxPoint x="1014.1114386630311" y="694.158205049187" as="targetPoint" />
          </mxGeometry>
        </mxCell>
        <mxCell id="xLusIHKsAydajGtpD9oH-86" value="&lt;span style=&quot;font-size: 14px;&quot;&gt;&lt;b&gt;Output&lt;/b&gt;&lt;/span&gt;" style="shape=dataStorage;whiteSpace=wrap;html=1;fixedSize=1;rotation=-90;align=center;" parent="1" vertex="1">
          <mxGeometry x="937.5" y="567.5" width="50" height="40" as="geometry" />
        </mxCell>
        <mxCell id="xLusIHKsAydajGtpD9oH-88" style="edgeStyle=none;curved=1;rounded=0;orthogonalLoop=1;jettySize=auto;html=1;entryX=0.141;entryY=0.991;entryDx=0;entryDy=0;entryPerimeter=0;fontSize=12;startSize=8;endSize=8;" parent="1" source="xLusIHKsAydajGtpD9oH-72" target="xLusIHKsAydajGtpD9oH-68" edge="1">
          <mxGeometry relative="1" as="geometry" />
        </mxCell>
        <mxCell id="xLusIHKsAydajGtpD9oH-92" style="edgeStyle=none;curved=1;rounded=0;orthogonalLoop=1;jettySize=auto;html=1;fontSize=12;startSize=8;endSize=8;" parent="1" source="xLusIHKsAydajGtpD9oH-90" target="xLusIHKsAydajGtpD9oH-69" edge="1">
          <mxGeometry relative="1" as="geometry" />
        </mxCell>
        <mxCell id="xLusIHKsAydajGtpD9oH-90" value="&lt;span style=&quot;background-color: transparent; color: light-dark(rgb(0, 0, 0), rgb(255, 255, 255));&quot;&gt;&lt;font style=&quot;font-size: 14px;&quot;&gt;&lt;b&gt;Input&lt;/b&gt;&lt;/font&gt;&lt;/span&gt;" style="shape=dataStorage;whiteSpace=wrap;html=1;fixedSize=1;rotation=90;align=center;" parent="1" vertex="1">
          <mxGeometry x="1042.5" y="567.5" width="50" height="40" as="geometry" />
        </mxCell>
        <mxCell id="xLusIHKsAydajGtpD9oH-93" style="edgeStyle=none;curved=1;rounded=0;orthogonalLoop=1;jettySize=auto;html=1;fontSize=12;startSize=8;endSize=8;" parent="1" source="xLusIHKsAydajGtpD9oH-91" target="xLusIHKsAydajGtpD9oH-70" edge="1">
          <mxGeometry relative="1" as="geometry" />
        </mxCell>
        <mxCell id="xLusIHKsAydajGtpD9oH-91" value="&lt;span style=&quot;background-color: transparent; color: light-dark(rgb(0, 0, 0), rgb(255, 255, 255));&quot;&gt;&lt;font style=&quot;font-size: 14px;&quot;&gt;&lt;b&gt;Input&lt;/b&gt;&lt;/font&gt;&lt;/span&gt;" style="shape=dataStorage;whiteSpace=wrap;html=1;fixedSize=1;rotation=90;align=center;" parent="1" vertex="1">
          <mxGeometry x="1172.5" y="567.5" width="50" height="40" as="geometry" />
        </mxCell>
        <mxCell id="xLusIHKsAydajGtpD9oH-97" style="edgeStyle=none;curved=1;rounded=0;orthogonalLoop=1;jettySize=auto;html=1;entryX=1;entryY=0.5;entryDx=0;entryDy=0;fontSize=12;startSize=8;endSize=8;exitX=0.16;exitY=0.55;exitDx=0;exitDy=0;exitPerimeter=0;" parent="1" target="xLusIHKsAydajGtpD9oH-72" edge="1">
          <mxGeometry relative="1" as="geometry">
            <Array as="points">
              <mxPoint x="877.5" y="730" />
            </Array>
            <mxPoint x="1011.5" y="746" as="sourcePoint" />
          </mxGeometry>
        </mxCell>
        <mxCell id="xLusIHKsAydajGtpD9oH-102" style="edgeStyle=none;curved=1;rounded=0;orthogonalLoop=1;jettySize=auto;html=1;entryX=1;entryY=0.5;entryDx=0;entryDy=0;fontSize=12;startSize=8;endSize=8;" parent="1" target="xLusIHKsAydajGtpD9oH-90" edge="1">
          <mxGeometry relative="1" as="geometry">
            <Array as="points">
              <mxPoint x="1077.5" y="650" />
            </Array>
            <mxPoint x="1072.4122790068263" y="680.5263259590429" as="sourcePoint" />
          </mxGeometry>
        </mxCell>
        <mxCell id="xLusIHKsAydajGtpD9oH-103" style="edgeStyle=none;curved=1;rounded=0;orthogonalLoop=1;jettySize=auto;html=1;fontSize=12;startSize=8;endSize=8;" parent="1" target="xLusIHKsAydajGtpD9oH-91" edge="1">
          <mxGeometry relative="1" as="geometry">
            <Array as="points">
              <mxPoint x="1197.5" y="720" />
            </Array>
            <mxPoint x="1136.2461503738346" y="729.0746443890614" as="sourcePoint" />
          </mxGeometry>
        </mxCell>
        <mxCell id="xLusIHKsAydajGtpD9oH-94" value="&lt;font style=&quot;font-size: 16px;&quot;&gt;&lt;b&gt;External&amp;nbsp;&lt;/b&gt;&lt;/font&gt;&lt;div&gt;&lt;font style=&quot;font-size: 16px;&quot;&gt;&lt;b&gt;Enviroment&lt;/b&gt;&lt;/font&gt;&lt;/div&gt;" style="ellipse;shape=cloud;whiteSpace=wrap;html=1;" parent="1" vertex="1">
          <mxGeometry x="997" y="680" width="150" height="120" as="geometry" />
        </mxCell>
        <mxCell id="rNpaKb_WSU_qO1_Yhmlk-1" value="Thinking Layer" style="rounded=0;whiteSpace=wrap;html=1;" parent="1" vertex="1">
          <mxGeometry x="997" y="308.75" width="120" height="60" as="geometry" />
        </mxCell>
        <mxCell id="rNpaKb_WSU_qO1_Yhmlk-6" style="edgeStyle=orthogonalEdgeStyle;rounded=0;orthogonalLoop=1;jettySize=auto;html=1;entryX=0.576;entryY=1;entryDx=0;entryDy=0;entryPerimeter=0;" parent="1" source="xLusIHKsAydajGtpD9oH-67" target="rNpaKb_WSU_qO1_Yhmlk-1" edge="1">
          <mxGeometry relative="1" as="geometry">
            <Array as="points">
              <mxPoint x="1066" y="430" />
              <mxPoint x="1066" y="430" />
            </Array>
          </mxGeometry>
        </mxCell>
        <mxCell id="rNpaKb_WSU_qO1_Yhmlk-7" style="edgeStyle=orthogonalEdgeStyle;rounded=0;orthogonalLoop=1;jettySize=auto;html=1;entryX=0.455;entryY=0.063;entryDx=0;entryDy=0;entryPerimeter=0;" parent="1" source="rNpaKb_WSU_qO1_Yhmlk-1" target="xLusIHKsAydajGtpD9oH-67" edge="1">
          <mxGeometry relative="1" as="geometry" />
        </mxCell>
        <mxCell id="rNpaKb_WSU_qO1_Yhmlk-14" style="edgeStyle=orthogonalEdgeStyle;rounded=0;orthogonalLoop=1;jettySize=auto;html=1;" parent="1" source="rNpaKb_WSU_qO1_Yhmlk-9" target="rNpaKb_WSU_qO1_Yhmlk-1" edge="1">
          <mxGeometry relative="1" as="geometry">
            <Array as="points">
              <mxPoint x="1150" y="329" />
              <mxPoint x="1150" y="329" />
            </Array>
          </mxGeometry>
        </mxCell>
        <mxCell id="rNpaKb_WSU_qO1_Yhmlk-9" value="Storage Layer" style="rounded=0;whiteSpace=wrap;html=1;rotation=-90;" parent="1" vertex="1">
          <mxGeometry x="1171" y="308.75" width="140" height="40" as="geometry" />
        </mxCell>
        <mxCell id="rNpaKb_WSU_qO1_Yhmlk-25" style="edgeStyle=orthogonalEdgeStyle;rounded=0;orthogonalLoop=1;jettySize=auto;html=1;entryX=1;entryY=0.5;entryDx=0;entryDy=0;" parent="1" source="rNpaKb_WSU_qO1_Yhmlk-11" target="rNpaKb_WSU_qO1_Yhmlk-15" edge="1">
          <mxGeometry relative="1" as="geometry">
            <Array as="points">
              <mxPoint x="1451" y="329" />
              <mxPoint x="1451" y="364" />
            </Array>
          </mxGeometry>
        </mxCell>
        <mxCell id="rNpaKb_WSU_qO1_Yhmlk-28" value="r/w" style="edgeLabel;html=1;align=center;verticalAlign=middle;resizable=0;points=[];" parent="rNpaKb_WSU_qO1_Yhmlk-25" vertex="1" connectable="0">
          <mxGeometry x="-0.3861" y="2" relative="1" as="geometry">
            <mxPoint y="1" as="offset" />
          </mxGeometry>
        </mxCell>
        <mxCell id="rNpaKb_WSU_qO1_Yhmlk-11" value="&lt;span style=&quot;font-size: 10px;&quot;&gt;Buffer Memory&lt;/span&gt;" style="shape=process;whiteSpace=wrap;html=1;backgroundOutline=1;" parent="1" vertex="1">
          <mxGeometry x="1257.5" y="318.75" width="80" height="30" as="geometry" />
        </mxCell>
        <mxCell id="rNpaKb_WSU_qO1_Yhmlk-12" style="edgeStyle=orthogonalEdgeStyle;rounded=0;orthogonalLoop=1;jettySize=auto;html=1;entryX=0.432;entryY=0.1;entryDx=0;entryDy=0;entryPerimeter=0;" parent="1" source="rNpaKb_WSU_qO1_Yhmlk-1" target="rNpaKb_WSU_qO1_Yhmlk-9" edge="1">
          <mxGeometry relative="1" as="geometry" />
        </mxCell>
        <mxCell id="rNpaKb_WSU_qO1_Yhmlk-27" style="edgeStyle=orthogonalEdgeStyle;rounded=0;orthogonalLoop=1;jettySize=auto;html=1;entryX=0.25;entryY=1;entryDx=0;entryDy=0;" parent="1" source="rNpaKb_WSU_qO1_Yhmlk-15" target="rNpaKb_WSU_qO1_Yhmlk-11" edge="1">
          <mxGeometry relative="1" as="geometry">
            <Array as="points">
              <mxPoint x="1371" y="400" />
              <mxPoint x="1278" y="400" />
              <mxPoint x="1278" y="369" />
            </Array>
          </mxGeometry>
        </mxCell>
        <mxCell id="rNpaKb_WSU_qO1_Yhmlk-29" value="read" style="edgeLabel;html=1;align=center;verticalAlign=middle;resizable=0;points=[];" parent="rNpaKb_WSU_qO1_Yhmlk-27" vertex="1" connectable="0">
          <mxGeometry x="-0.2679" y="-1" relative="1" as="geometry">
            <mxPoint as="offset" />
          </mxGeometry>
        </mxCell>
        <mxCell id="rNpaKb_WSU_qO1_Yhmlk-15" value="&lt;span style=&quot;font-size: 10px;&quot;&gt;The Memory&lt;/span&gt;" style="shape=process;whiteSpace=wrap;html=1;backgroundOutline=1;" parent="1" vertex="1">
          <mxGeometry x="1311" y="348.75" width="120" height="30" as="geometry" />
        </mxCell>
        <mxCell id="rNpaKb_WSU_qO1_Yhmlk-30" value="Conviene eliminare come dati spazzatura, magari quelli che non hanno collegamenti o hanno una strada lunga?" style="text;html=1;align=center;verticalAlign=middle;whiteSpace=wrap;rounded=0;" parent="1" vertex="1">
          <mxGeometry x="1337.5" y="230" width="180" height="125" as="geometry" />
        </mxCell>
        <mxCell id="4FwJ6hWMVKSaQjKdlcqb-1" value="" style="endArrow=none;html=1;rounded=0;fontSize=12;startSize=8;endSize=8;curved=1;" parent="1" edge="1">
          <mxGeometry width="50" height="50" relative="1" as="geometry">
            <mxPoint x="827" y="230" as="sourcePoint" />
            <mxPoint x="1640" y="230" as="targetPoint" />
          </mxGeometry>
        </mxCell>
        <mxCell id="XE6BQxbrz9Lr2IQbrbN6-1" value="" style="endArrow=none;html=1;rounded=0;fontSize=12;startSize=8;endSize=8;curved=1;" parent="1" edge="1">
          <mxGeometry width="50" height="50" relative="1" as="geometry">
            <mxPoint x="730" y="830" as="sourcePoint" />
            <mxPoint x="1543" y="830" as="targetPoint" />
          </mxGeometry>
        </mxCell>
        <mxCell id="XE6BQxbrz9Lr2IQbrbN6-18" style="edgeStyle=none;curved=1;rounded=0;orthogonalLoop=1;jettySize=auto;html=1;fontSize=12;startSize=8;endSize=8;" parent="1" source="XE6BQxbrz9Lr2IQbrbN6-2" target="XE6BQxbrz9Lr2IQbrbN6-14" edge="1">
          <mxGeometry relative="1" as="geometry">
            <Array as="points">
              <mxPoint x="900" y="1070" />
            </Array>
          </mxGeometry>
        </mxCell>
        <mxCell id="XE6BQxbrz9Lr2IQbrbN6-2" value="&lt;font style=&quot;font-size: 16px;&quot;&gt;&lt;b&gt;External&amp;nbsp;&lt;/b&gt;&lt;/font&gt;&lt;div&gt;&lt;font style=&quot;font-size: 16px;&quot;&gt;&lt;b&gt;Enviroment&lt;/b&gt;&lt;/font&gt;&lt;/div&gt;" style="ellipse;shape=cloud;whiteSpace=wrap;html=1;" parent="1" vertex="1">
          <mxGeometry x="690" y="1010" width="150" height="120" as="geometry" />
        </mxCell>
        <mxCell id="XE6BQxbrz9Lr2IQbrbN6-23" style="edgeStyle=none;curved=1;rounded=0;orthogonalLoop=1;jettySize=auto;html=1;fontSize=12;startSize=8;endSize=8;" parent="1" source="XE6BQxbrz9Lr2IQbrbN6-4" target="XE6BQxbrz9Lr2IQbrbN6-14" edge="1">
          <mxGeometry relative="1" as="geometry">
            <Array as="points">
              <mxPoint x="1050" y="1040" />
            </Array>
          </mxGeometry>
        </mxCell>
        <mxCell id="XE6BQxbrz9Lr2IQbrbN6-4" value="3Sapiens Network" style="ellipse;whiteSpace=wrap;html=1;" parent="1" vertex="1">
          <mxGeometry x="1094" y="980" width="190" height="180" as="geometry" />
        </mxCell>
        <mxCell id="XE6BQxbrz9Lr2IQbrbN6-6" value="Node" style="shape=mxgraph.cisco.computers_and_peripherals.pc;html=1;pointerEvents=1;dashed=0;fillColor=#036897;strokeColor=#ffffff;strokeWidth=2;verticalLabelPosition=bottom;verticalAlign=top;align=center;outlineConnect=0;" parent="1" vertex="1">
          <mxGeometry x="1130" y="1090" width="47.5" height="40" as="geometry" />
        </mxCell>
        <mxCell id="XE6BQxbrz9Lr2IQbrbN6-7" value="Node" style="shape=mxgraph.cisco.computers_and_peripherals.pc;html=1;pointerEvents=1;dashed=0;fillColor=#036897;strokeColor=#ffffff;strokeWidth=2;verticalLabelPosition=bottom;verticalAlign=top;align=center;outlineConnect=0;" parent="1" vertex="1">
          <mxGeometry x="1170" y="1000" width="47.5" height="40" as="geometry" />
        </mxCell>
        <mxCell id="XE6BQxbrz9Lr2IQbrbN6-8" value="Node" style="shape=mxgraph.cisco.computers_and_peripherals.pc;html=1;pointerEvents=1;dashed=0;fillColor=#036897;strokeColor=#ffffff;strokeWidth=2;verticalLabelPosition=bottom;verticalAlign=top;align=center;outlineConnect=0;" parent="1" vertex="1">
          <mxGeometry x="1193.5" y="1090" width="47.5" height="40" as="geometry" />
        </mxCell>
        <mxCell id="XE6BQxbrz9Lr2IQbrbN6-17" style="edgeStyle=none;curved=1;rounded=0;orthogonalLoop=1;jettySize=auto;html=1;fontSize=12;startSize=8;endSize=8;" parent="1" source="XE6BQxbrz9Lr2IQbrbN6-14" target="XE6BQxbrz9Lr2IQbrbN6-2" edge="1">
          <mxGeometry relative="1" as="geometry">
            <Array as="points">
              <mxPoint x="890" y="1040" />
            </Array>
          </mxGeometry>
        </mxCell>
        <mxCell id="XE6BQxbrz9Lr2IQbrbN6-24" style="edgeStyle=none;curved=1;rounded=0;orthogonalLoop=1;jettySize=auto;html=1;fontSize=12;startSize=8;endSize=8;" parent="1" source="XE6BQxbrz9Lr2IQbrbN6-14" target="XE6BQxbrz9Lr2IQbrbN6-4" edge="1">
          <mxGeometry relative="1" as="geometry">
            <Array as="points">
              <mxPoint x="1050" y="1080" />
            </Array>
          </mxGeometry>
        </mxCell>
        <mxCell id="XE6BQxbrz9Lr2IQbrbN6-14" value="Node Gateway" style="shape=mxgraph.cisco.computers_and_peripherals.pc;html=1;pointerEvents=1;dashed=0;fillColor=#036897;strokeColor=#ffffff;strokeWidth=2;verticalLabelPosition=bottom;verticalAlign=top;align=center;outlineConnect=0;" parent="1" vertex="1">
          <mxGeometry x="950" y="1030" width="52.5" height="40" as="geometry" />
        </mxCell>
        <mxCell id="XE6BQxbrz9Lr2IQbrbN6-29" style="edgeStyle=none;curved=1;rounded=0;orthogonalLoop=1;jettySize=auto;html=1;fontSize=12;startSize=8;endSize=8;" parent="1" source="XE6BQxbrz9Lr2IQbrbN6-27" target="XE6BQxbrz9Lr2IQbrbN6-28" edge="1">
          <mxGeometry relative="1" as="geometry">
            <Array as="points">
              <mxPoint x="1360" y="1080" />
            </Array>
          </mxGeometry>
        </mxCell>
        <mxCell id="XE6BQxbrz9Lr2IQbrbN6-27" value="I/O Layer" style="rounded=0;whiteSpace=wrap;html=1;rotation=90;" parent="1" vertex="1">
          <mxGeometry x="1181" y="1050" width="240" height="40" as="geometry" />
        </mxCell>
        <mxCell id="XE6BQxbrz9Lr2IQbrbN6-31" style="edgeStyle=none;curved=1;rounded=0;orthogonalLoop=1;jettySize=auto;html=1;fontSize=12;startSize=8;endSize=8;" parent="1" source="XE6BQxbrz9Lr2IQbrbN6-28" target="XE6BQxbrz9Lr2IQbrbN6-27" edge="1">
          <mxGeometry relative="1" as="geometry">
            <Array as="points">
              <mxPoint x="1360" y="1050" />
            </Array>
          </mxGeometry>
        </mxCell>
        <mxCell id="XE6BQxbrz9Lr2IQbrbN6-34" style="edgeStyle=none;curved=1;rounded=0;orthogonalLoop=1;jettySize=auto;html=1;fontSize=12;startSize=8;endSize=8;" parent="1" source="XE6BQxbrz9Lr2IQbrbN6-28" target="XE6BQxbrz9Lr2IQbrbN6-32" edge="1">
          <mxGeometry relative="1" as="geometry">
            <Array as="points">
              <mxPoint x="1490" y="1120" />
            </Array>
          </mxGeometry>
        </mxCell>
        <mxCell id="XE6BQxbrz9Lr2IQbrbN6-28" value="Thinking Layer" style="rounded=0;whiteSpace=wrap;html=1;" parent="1" vertex="1">
          <mxGeometry x="1400" y="1030" width="120" height="60" as="geometry" />
        </mxCell>
        <mxCell id="XE6BQxbrz9Lr2IQbrbN6-33" style="edgeStyle=none;curved=1;rounded=0;orthogonalLoop=1;jettySize=auto;html=1;entryX=0.5;entryY=1;entryDx=0;entryDy=0;fontSize=12;startSize=8;endSize=8;" parent="1" source="XE6BQxbrz9Lr2IQbrbN6-32" target="XE6BQxbrz9Lr2IQbrbN6-28" edge="1">
          <mxGeometry relative="1" as="geometry">
            <Array as="points">
              <mxPoint x="1450" y="1120" />
            </Array>
          </mxGeometry>
        </mxCell>
        <mxCell id="XE6BQxbrz9Lr2IQbrbN6-32" value="Storage Layer" style="rounded=0;whiteSpace=wrap;html=1;rotation=0;" parent="1" vertex="1">
          <mxGeometry x="1390" y="1160" width="140" height="40" as="geometry" />
        </mxCell>
        <mxCell id="XE6BQxbrz9Lr2IQbrbN6-35" value="&lt;font style=&quot;font-size: 19px;&quot;&gt;p2p AGI?&lt;/font&gt;" style="text;html=1;align=center;verticalAlign=middle;whiteSpace=wrap;rounded=0;" parent="1" vertex="1">
          <mxGeometry x="750" y="900" width="160" height="40" as="geometry" />
        </mxCell>
        <mxCell id="Z-1nj8SL1y7MAvVZy5Cm-1" value="" style="endArrow=none;html=1;rounded=0;fontSize=12;startSize=8;endSize=8;curved=1;" edge="1" parent="1">
          <mxGeometry width="50" height="50" relative="1" as="geometry">
            <mxPoint x="747.25" y="1250" as="sourcePoint" />
            <mxPoint x="1560.25" y="1250" as="targetPoint" />
          </mxGeometry>
        </mxCell>
        <mxCell id="Z-1nj8SL1y7MAvVZy5Cm-16" style="edgeStyle=orthogonalEdgeStyle;rounded=0;orthogonalLoop=1;jettySize=auto;html=1;flowAnimation=0;curved=1;" edge="1" parent="1" target="Z-1nj8SL1y7MAvVZy5Cm-7">
          <mxGeometry relative="1" as="geometry">
            <mxPoint x="910" y="1470" as="sourcePoint" />
            <Array as="points">
              <mxPoint x="940" y="1470" />
              <mxPoint x="940" y="1515" />
            </Array>
          </mxGeometry>
        </mxCell>
        <mxCell id="Z-1nj8SL1y7MAvVZy5Cm-2" value="&lt;font style=&quot;font-size: 16px;&quot;&gt;&lt;b&gt;External&amp;nbsp;&lt;/b&gt;&lt;/font&gt;&lt;div&gt;&lt;font style=&quot;font-size: 16px;&quot;&gt;&lt;b&gt;Enviroment&lt;/b&gt;&lt;/font&gt;&lt;/div&gt;" style="ellipse;shape=cloud;whiteSpace=wrap;html=1;" vertex="1" parent="1">
          <mxGeometry x="800" y="1410" width="170" height="160" as="geometry" />
        </mxCell>
        <mxCell id="Z-1nj8SL1y7MAvVZy5Cm-7" value="&lt;span style=&quot;font-size: 15px;&quot;&gt;&lt;b&gt;&amp;lt;&amp;lt;abstract&amp;gt;&amp;gt;&lt;/b&gt;&lt;/span&gt;&lt;div&gt;&lt;span style=&quot;font-size: 15px;&quot;&gt;&lt;b&gt;input&lt;/b&gt;&lt;/span&gt;&lt;/div&gt;" style="triangle;whiteSpace=wrap;html=1;" vertex="1" parent="1">
          <mxGeometry x="1073.5" y="1470" width="56.5" height="70" as="geometry" />
        </mxCell>
        <mxCell id="Z-1nj8SL1y7MAvVZy5Cm-30" style="edgeStyle=orthogonalEdgeStyle;rounded=0;orthogonalLoop=1;jettySize=auto;html=1;" edge="1" parent="1" source="Z-1nj8SL1y7MAvVZy5Cm-19" target="Z-1nj8SL1y7MAvVZy5Cm-20">
          <mxGeometry relative="1" as="geometry" />
        </mxCell>
        <mxCell id="Z-1nj8SL1y7MAvVZy5Cm-19" value="" style="ellipse;whiteSpace=wrap;html=1;fillColor=none;" vertex="1" parent="1">
          <mxGeometry x="1287.5" y="1390" width="190" height="180" as="geometry" />
        </mxCell>
        <mxCell id="Z-1nj8SL1y7MAvVZy5Cm-29" style="edgeStyle=orthogonalEdgeStyle;rounded=0;orthogonalLoop=1;jettySize=auto;html=1;" edge="1" parent="1" source="Z-1nj8SL1y7MAvVZy5Cm-20" target="Z-1nj8SL1y7MAvVZy5Cm-19">
          <mxGeometry relative="1" as="geometry" />
        </mxCell>
        <mxCell id="Z-1nj8SL1y7MAvVZy5Cm-38" value="i/o" style="edgeLabel;html=1;align=center;verticalAlign=middle;resizable=0;points=[];" vertex="1" connectable="0" parent="Z-1nj8SL1y7MAvVZy5Cm-29">
          <mxGeometry x="0.0824" y="2" relative="1" as="geometry">
            <mxPoint as="offset" />
          </mxGeometry>
        </mxCell>
        <mxCell id="Z-1nj8SL1y7MAvVZy5Cm-20" value="" style="ellipse;whiteSpace=wrap;html=1;fillColor=none;" vertex="1" parent="1">
          <mxGeometry x="1125.5" y="1410" width="134.5" height="140" as="geometry" />
        </mxCell>
        <mxCell id="Z-1nj8SL1y7MAvVZy5Cm-22" value="3Sapiens Network&amp;nbsp;&lt;div&gt;Frontend&lt;/div&gt;" style="text;html=1;align=center;verticalAlign=middle;resizable=0;points=[];autosize=1;strokeColor=none;fillColor=none;" vertex="1" parent="1">
          <mxGeometry x="1120" y="1373" width="120" height="40" as="geometry" />
        </mxCell>
        <mxCell id="Z-1nj8SL1y7MAvVZy5Cm-23" value="3Sapiens Network&lt;div&gt;Backend&lt;/div&gt;" style="text;html=1;align=center;verticalAlign=middle;resizable=0;points=[];autosize=1;strokeColor=none;fillColor=none;" vertex="1" parent="1">
          <mxGeometry x="1325" y="1350" width="120" height="40" as="geometry" />
        </mxCell>
        <mxCell id="Z-1nj8SL1y7MAvVZy5Cm-24" value="Node" style="shape=mxgraph.cisco.computers_and_peripherals.pc;html=1;pointerEvents=1;dashed=0;fillColor=#036897;strokeColor=#ffffff;strokeWidth=2;verticalLabelPosition=bottom;verticalAlign=top;align=center;outlineConnect=0;" vertex="1" parent="1">
          <mxGeometry x="1157.5" y="1420" width="52.5" height="40" as="geometry" />
        </mxCell>
        <mxCell id="Z-1nj8SL1y7MAvVZy5Cm-27" value="Node" style="shape=mxgraph.cisco.computers_and_peripherals.pc;html=1;pointerEvents=1;dashed=0;fillColor=#036897;strokeColor=#ffffff;strokeWidth=2;verticalLabelPosition=bottom;verticalAlign=top;align=center;outlineConnect=0;" vertex="1" parent="1">
          <mxGeometry x="1130" y="1480" width="52.5" height="40" as="geometry" />
        </mxCell>
        <mxCell id="Z-1nj8SL1y7MAvVZy5Cm-28" value="Node" style="shape=mxgraph.cisco.computers_and_peripherals.pc;html=1;pointerEvents=1;dashed=0;fillColor=#036897;strokeColor=#ffffff;strokeWidth=2;verticalLabelPosition=bottom;verticalAlign=top;align=center;outlineConnect=0;" vertex="1" parent="1">
          <mxGeometry x="1187.5" y="1480" width="52.5" height="40" as="geometry" />
        </mxCell>
        <mxCell id="Z-1nj8SL1y7MAvVZy5Cm-31" value="&lt;div&gt;&lt;font style=&quot;font-size: 15px;&quot;&gt;&lt;b&gt;output&lt;/b&gt;&lt;/font&gt;&lt;/div&gt;" style="shape=dataStorage;whiteSpace=wrap;html=1;fixedSize=1;" vertex="1" parent="1">
          <mxGeometry x="940" y="1430" width="65" height="50" as="geometry" />
        </mxCell>
        <mxCell id="Z-1nj8SL1y7MAvVZy5Cm-34" value="Node" style="shape=mxgraph.cisco.computers_and_peripherals.pc;html=1;pointerEvents=1;dashed=0;fillColor=#036897;strokeColor=#ffffff;strokeWidth=2;verticalLabelPosition=bottom;verticalAlign=top;align=center;outlineConnect=0;" vertex="1" parent="1">
          <mxGeometry x="1365" y="1400" width="52.5" height="40" as="geometry" />
        </mxCell>
        <mxCell id="Z-1nj8SL1y7MAvVZy5Cm-35" value="Node" style="shape=mxgraph.cisco.computers_and_peripherals.pc;html=1;pointerEvents=1;dashed=0;fillColor=#036897;strokeColor=#ffffff;strokeWidth=2;verticalLabelPosition=bottom;verticalAlign=top;align=center;outlineConnect=0;" vertex="1" parent="1">
          <mxGeometry x="1307" y="1440" width="52.5" height="40" as="geometry" />
        </mxCell>
        <mxCell id="Z-1nj8SL1y7MAvVZy5Cm-36" value="Node" style="shape=mxgraph.cisco.computers_and_peripherals.pc;html=1;pointerEvents=1;dashed=0;fillColor=#036897;strokeColor=#ffffff;strokeWidth=2;verticalLabelPosition=bottom;verticalAlign=top;align=center;outlineConnect=0;" vertex="1" parent="1">
          <mxGeometry x="1353.5" y="1500" width="52.5" height="40" as="geometry" />
        </mxCell>
        <mxCell id="Z-1nj8SL1y7MAvVZy5Cm-37" value="Node" style="shape=mxgraph.cisco.computers_and_peripherals.pc;html=1;pointerEvents=1;dashed=0;fillColor=#036897;strokeColor=#ffffff;strokeWidth=2;verticalLabelPosition=bottom;verticalAlign=top;align=center;outlineConnect=0;" vertex="1" parent="1">
          <mxGeometry x="1410" y="1460" width="52.5" height="40" as="geometry" />
        </mxCell>
        <mxCell id="Z-1nj8SL1y7MAvVZy5Cm-40" style="edgeStyle=orthogonalEdgeStyle;rounded=0;orthogonalLoop=1;jettySize=auto;html=1;entryX=0.692;entryY=0.36;entryDx=0;entryDy=0;entryPerimeter=0;curved=1;" edge="1" parent="1" source="Z-1nj8SL1y7MAvVZy5Cm-20" target="Z-1nj8SL1y7MAvVZy5Cm-31">
          <mxGeometry relative="1" as="geometry">
            <Array as="points">
              <mxPoint x="1090" y="1460" />
              <mxPoint x="1090" y="1440" />
              <mxPoint x="1010" y="1440" />
              <mxPoint x="1010" y="1448" />
            </Array>
          </mxGeometry>
        </mxCell>
        <mxCell id="Z-1nj8SL1y7MAvVZy5Cm-41" value="" style="endArrow=none;html=1;rounded=0;fontSize=12;startSize=8;endSize=8;curved=1;" edge="1" parent="1">
          <mxGeometry width="50" height="50" relative="1" as="geometry">
            <mxPoint x="782.5" y="1690" as="sourcePoint" />
            <mxPoint x="1595.5" y="1690" as="targetPoint" />
          </mxGeometry>
        </mxCell>
        <mxCell id="Z-1nj8SL1y7MAvVZy5Cm-42" value="&lt;font style=&quot;font-size: 18px;&quot;&gt;&lt;b&gt;3Sapiens Network: backend&lt;/b&gt;&lt;/font&gt;" style="text;html=1;align=center;verticalAlign=middle;resizable=0;points=[];autosize=1;strokeColor=none;fillColor=none;" vertex="1" parent="1">
          <mxGeometry x="742.5" y="1754" width="260" height="40" as="geometry" />
        </mxCell>
        <mxCell id="Z-1nj8SL1y7MAvVZy5Cm-65" style="edgeStyle=orthogonalEdgeStyle;rounded=0;orthogonalLoop=1;jettySize=auto;html=1;" edge="1" parent="1" source="Z-1nj8SL1y7MAvVZy5Cm-43" target="Z-1nj8SL1y7MAvVZy5Cm-46">
          <mxGeometry relative="1" as="geometry" />
        </mxCell>
        <mxCell id="Z-1nj8SL1y7MAvVZy5Cm-66" style="edgeStyle=orthogonalEdgeStyle;rounded=0;orthogonalLoop=1;jettySize=auto;html=1;" edge="1" parent="1" source="Z-1nj8SL1y7MAvVZy5Cm-43" target="Z-1nj8SL1y7MAvVZy5Cm-47">
          <mxGeometry relative="1" as="geometry">
            <Array as="points">
              <mxPoint x="1039.75" y="2040" />
              <mxPoint x="1005.75" y="2040" />
            </Array>
          </mxGeometry>
        </mxCell>
        <mxCell id="Z-1nj8SL1y7MAvVZy5Cm-68" style="edgeStyle=orthogonalEdgeStyle;rounded=0;orthogonalLoop=1;jettySize=auto;html=1;" edge="1" parent="1" source="Z-1nj8SL1y7MAvVZy5Cm-43" target="Z-1nj8SL1y7MAvVZy5Cm-48">
          <mxGeometry relative="1" as="geometry">
            <Array as="points">
              <mxPoint x="1089.75" y="2020" />
              <mxPoint x="1089.75" y="2020" />
            </Array>
          </mxGeometry>
        </mxCell>
        <mxCell id="Z-1nj8SL1y7MAvVZy5Cm-70" style="edgeStyle=orthogonalEdgeStyle;rounded=0;orthogonalLoop=1;jettySize=auto;html=1;" edge="1" parent="1" source="Z-1nj8SL1y7MAvVZy5Cm-43" target="Z-1nj8SL1y7MAvVZy5Cm-45">
          <mxGeometry relative="1" as="geometry">
            <Array as="points">
              <mxPoint x="809.75" y="2040" />
              <mxPoint x="765.75" y="2040" />
            </Array>
          </mxGeometry>
        </mxCell>
        <mxCell id="Z-1nj8SL1y7MAvVZy5Cm-43" value="3Sapiens Distribuited File System Protocol (DFS)" style="shape=process;whiteSpace=wrap;html=1;backgroundOutline=1;" vertex="1" parent="1">
          <mxGeometry x="729.75" y="1960" width="440" height="40" as="geometry" />
        </mxCell>
        <mxCell id="Z-1nj8SL1y7MAvVZy5Cm-91" style="edgeStyle=orthogonalEdgeStyle;rounded=0;orthogonalLoop=1;jettySize=auto;html=1;" edge="1" parent="1" source="Z-1nj8SL1y7MAvVZy5Cm-44" target="Z-1nj8SL1y7MAvVZy5Cm-82">
          <mxGeometry relative="1" as="geometry">
            <Array as="points">
              <mxPoint x="949.75" y="1850" />
              <mxPoint x="1450.75" y="1850" />
            </Array>
          </mxGeometry>
        </mxCell>
        <mxCell id="Z-1nj8SL1y7MAvVZy5Cm-44" value="Application Layer" style="shape=process;whiteSpace=wrap;html=1;backgroundOutline=1;" vertex="1" parent="1">
          <mxGeometry x="826.6300000000001" y="1920" width="246.25" height="40" as="geometry" />
        </mxCell>
        <mxCell id="Z-1nj8SL1y7MAvVZy5Cm-59" style="edgeStyle=orthogonalEdgeStyle;rounded=0;orthogonalLoop=1;jettySize=auto;html=1;" edge="1" parent="1" source="Z-1nj8SL1y7MAvVZy5Cm-45" target="Z-1nj8SL1y7MAvVZy5Cm-43">
          <mxGeometry relative="1" as="geometry">
            <Array as="points">
              <mxPoint x="765.75" y="2040" />
              <mxPoint x="809.75" y="2040" />
            </Array>
          </mxGeometry>
        </mxCell>
        <mxCell id="Z-1nj8SL1y7MAvVZy5Cm-45" value="Storage Node" style="shape=mxgraph.cisco.computers_and_peripherals.pc;html=1;pointerEvents=1;dashed=0;fillColor=#036897;strokeColor=#ffffff;strokeWidth=2;verticalLabelPosition=bottom;verticalAlign=top;align=center;outlineConnect=0;" vertex="1" parent="1">
          <mxGeometry x="739.75" y="2080" width="52.5" height="40" as="geometry" />
        </mxCell>
        <mxCell id="Z-1nj8SL1y7MAvVZy5Cm-62" style="edgeStyle=orthogonalEdgeStyle;rounded=0;orthogonalLoop=1;jettySize=auto;html=1;" edge="1" parent="1" source="Z-1nj8SL1y7MAvVZy5Cm-46" target="Z-1nj8SL1y7MAvVZy5Cm-43">
          <mxGeometry relative="1" as="geometry" />
        </mxCell>
        <mxCell id="Z-1nj8SL1y7MAvVZy5Cm-46" value="Storage Node" style="shape=mxgraph.cisco.computers_and_peripherals.pc;html=1;pointerEvents=1;dashed=0;fillColor=#036897;strokeColor=#ffffff;strokeWidth=2;verticalLabelPosition=bottom;verticalAlign=top;align=center;outlineConnect=0;" vertex="1" parent="1">
          <mxGeometry x="867.25" y="2080" width="52.5" height="40" as="geometry" />
        </mxCell>
        <mxCell id="Z-1nj8SL1y7MAvVZy5Cm-47" value="Storage Node" style="shape=mxgraph.cisco.computers_and_peripherals.pc;html=1;pointerEvents=1;dashed=0;fillColor=#036897;strokeColor=#ffffff;strokeWidth=2;verticalLabelPosition=bottom;verticalAlign=top;align=center;outlineConnect=0;" vertex="1" parent="1">
          <mxGeometry x="979.75" y="2080" width="52.5" height="40" as="geometry" />
        </mxCell>
        <mxCell id="Z-1nj8SL1y7MAvVZy5Cm-48" value="Storage Node" style="shape=mxgraph.cisco.computers_and_peripherals.pc;html=1;pointerEvents=1;dashed=0;fillColor=#036897;strokeColor=#ffffff;strokeWidth=2;verticalLabelPosition=bottom;verticalAlign=top;align=center;outlineConnect=0;" vertex="1" parent="1">
          <mxGeometry x="1064" y="2070" width="52.5" height="40" as="geometry" />
        </mxCell>
        <mxCell id="Z-1nj8SL1y7MAvVZy5Cm-63" style="edgeStyle=orthogonalEdgeStyle;rounded=0;orthogonalLoop=1;jettySize=auto;html=1;entryX=0.707;entryY=0.95;entryDx=0;entryDy=0;entryPerimeter=0;" edge="1" parent="1" source="Z-1nj8SL1y7MAvVZy5Cm-47" target="Z-1nj8SL1y7MAvVZy5Cm-43">
          <mxGeometry relative="1" as="geometry" />
        </mxCell>
        <mxCell id="Z-1nj8SL1y7MAvVZy5Cm-69" style="edgeStyle=orthogonalEdgeStyle;rounded=0;orthogonalLoop=1;jettySize=auto;html=1;entryX=0.82;entryY=1;entryDx=0;entryDy=0;entryPerimeter=0;" edge="1" parent="1" source="Z-1nj8SL1y7MAvVZy5Cm-48" target="Z-1nj8SL1y7MAvVZy5Cm-43">
          <mxGeometry relative="1" as="geometry" />
        </mxCell>
        <mxCell id="Z-1nj8SL1y7MAvVZy5Cm-73" value="3Sapiens Cognitive Dijkstra Path" style="shape=process;whiteSpace=wrap;html=1;backgroundOutline=1;" vertex="1" parent="1">
          <mxGeometry x="1270.25" y="1960" width="360" height="40" as="geometry" />
        </mxCell>
        <mxCell id="Z-1nj8SL1y7MAvVZy5Cm-78" style="edgeStyle=orthogonalEdgeStyle;rounded=0;orthogonalLoop=1;jettySize=auto;html=1;" edge="1" parent="1" source="Z-1nj8SL1y7MAvVZy5Cm-74" target="Z-1nj8SL1y7MAvVZy5Cm-73">
          <mxGeometry relative="1" as="geometry" />
        </mxCell>
        <mxCell id="Z-1nj8SL1y7MAvVZy5Cm-74" value="Thinking Node" style="shape=mxgraph.cisco.computers_and_peripherals.pc;html=1;pointerEvents=1;dashed=0;fillColor=#036897;strokeColor=#ffffff;strokeWidth=2;verticalLabelPosition=bottom;verticalAlign=top;align=center;outlineConnect=0;" vertex="1" parent="1">
          <mxGeometry x="1299" y="2050" width="52.5" height="40" as="geometry" />
        </mxCell>
        <mxCell id="Z-1nj8SL1y7MAvVZy5Cm-79" style="edgeStyle=orthogonalEdgeStyle;rounded=0;orthogonalLoop=1;jettySize=auto;html=1;" edge="1" parent="1" source="Z-1nj8SL1y7MAvVZy5Cm-75" target="Z-1nj8SL1y7MAvVZy5Cm-73">
          <mxGeometry relative="1" as="geometry">
            <Array as="points">
              <mxPoint x="1372.75" y="2090" />
            </Array>
          </mxGeometry>
        </mxCell>
        <mxCell id="Z-1nj8SL1y7MAvVZy5Cm-75" value="Thinking Node" style="shape=mxgraph.cisco.computers_and_peripherals.pc;html=1;pointerEvents=1;dashed=0;fillColor=#036897;strokeColor=#ffffff;strokeWidth=2;verticalLabelPosition=bottom;verticalAlign=top;align=center;outlineConnect=0;" vertex="1" parent="1">
          <mxGeometry x="1391.25" y="2070" width="52.5" height="40" as="geometry" />
        </mxCell>
        <mxCell id="Z-1nj8SL1y7MAvVZy5Cm-81" style="edgeStyle=orthogonalEdgeStyle;rounded=0;orthogonalLoop=1;jettySize=auto;html=1;" edge="1" parent="1" source="Z-1nj8SL1y7MAvVZy5Cm-76" target="Z-1nj8SL1y7MAvVZy5Cm-73">
          <mxGeometry relative="1" as="geometry">
            <Array as="points">
              <mxPoint x="1578.75" y="2030" />
              <mxPoint x="1562.75" y="2030" />
            </Array>
          </mxGeometry>
        </mxCell>
        <mxCell id="Z-1nj8SL1y7MAvVZy5Cm-76" value="Thinking Node" style="shape=mxgraph.cisco.computers_and_peripherals.pc;html=1;pointerEvents=1;dashed=0;fillColor=#036897;strokeColor=#ffffff;strokeWidth=2;verticalLabelPosition=bottom;verticalAlign=top;align=center;outlineConnect=0;" vertex="1" parent="1">
          <mxGeometry x="1552.75" y="2060" width="52.5" height="40" as="geometry" />
        </mxCell>
        <mxCell id="Z-1nj8SL1y7MAvVZy5Cm-77" value="Thinking Node" style="shape=mxgraph.cisco.computers_and_peripherals.pc;html=1;pointerEvents=1;dashed=0;fillColor=#036897;strokeColor=#ffffff;strokeWidth=2;verticalLabelPosition=bottom;verticalAlign=top;align=center;outlineConnect=0;" vertex="1" parent="1">
          <mxGeometry x="1470.25" y="2050" width="52.5" height="40" as="geometry" />
        </mxCell>
        <mxCell id="Z-1nj8SL1y7MAvVZy5Cm-80" style="edgeStyle=orthogonalEdgeStyle;rounded=0;orthogonalLoop=1;jettySize=auto;html=1;entryX=0.676;entryY=1;entryDx=0;entryDy=0;entryPerimeter=0;" edge="1" parent="1" source="Z-1nj8SL1y7MAvVZy5Cm-77" target="Z-1nj8SL1y7MAvVZy5Cm-73">
          <mxGeometry relative="1" as="geometry" />
        </mxCell>
        <mxCell id="Z-1nj8SL1y7MAvVZy5Cm-94" style="edgeStyle=orthogonalEdgeStyle;rounded=0;orthogonalLoop=1;jettySize=auto;html=1;" edge="1" parent="1" source="Z-1nj8SL1y7MAvVZy5Cm-82" target="Z-1nj8SL1y7MAvVZy5Cm-44">
          <mxGeometry relative="1" as="geometry">
            <Array as="points">
              <mxPoint x="1450.75" y="1850" />
              <mxPoint x="949.75" y="1850" />
            </Array>
          </mxGeometry>
        </mxCell>
        <mxCell id="Z-1nj8SL1y7MAvVZy5Cm-82" value="Thinking Layer" style="shape=process;whiteSpace=wrap;html=1;backgroundOutline=1;" vertex="1" parent="1">
          <mxGeometry x="1329.75" y="1920" width="242.5" height="40" as="geometry" />
        </mxCell>
      </root>
    </mxGraphModel>
  </diagram>
</mxfile>
